<svg width="16" height="16" viewBox="0 0 20 20" fill="none" xmlns="http://www.w3.org/2000/svg">
<path d="M4.46425 3.57153H15.5357C16.1286 3.57149 16.6991 3.79836 17.1301 4.20558C17.5611 4.61281 17.82 5.16953 17.8535 5.76153L17.8571 5.89296V14.1072C17.8571 14.7002 17.6303 15.2707 17.2231 15.7017C16.8158 16.1327 16.2591 16.3915 15.6671 16.4251L15.5357 16.4287H4.46425C3.8713 16.4287 3.3008 16.2019 2.8698 15.7946C2.4388 15.3874 2.17996 14.8307 2.14639 14.2387L2.14282 14.1072V5.89296C2.14278 5.30001 2.36965 4.72951 2.77687 4.29851C3.1841 3.86751 3.74082 3.60868 4.33282 3.5751L4.46425 3.57153H15.5357H4.46425ZM16.7857 7.78939L10.2471 11.1894C10.1838 11.2223 10.1145 11.2422 10.0434 11.248C9.97221 11.2538 9.90063 11.2452 9.83282 11.223L9.75282 11.1894L3.21425 7.78939V14.1072C3.21426 14.421 3.33223 14.7232 3.54474 14.954C3.75724 15.1847 4.04875 15.3271 4.36139 15.353L4.46425 15.3572H15.5357C15.8495 15.3572 16.1518 15.2392 16.3826 15.0265C16.6134 14.8138 16.7558 14.5222 16.7814 14.2094L16.7857 14.1072V7.78939ZM15.5357 4.64296H4.46425C4.15054 4.64297 3.84831 4.76094 3.61754 4.97345C3.38678 5.18595 3.24435 5.47746 3.21854 5.7901L3.21425 5.89296V6.58153L9.99997 10.1101L16.7857 6.58153V5.89296C16.7857 5.57914 16.6676 5.27681 16.4549 5.04603C16.2423 4.81524 15.9506 4.67289 15.6378 4.64725L15.5357 4.64296Z" fill="white"/>
</svg>
