<svg width="16" height="16" viewBox="0 0 16 16" fill="none" xmlns="http://www.w3.org/2000/svg">
<path d="M7.93518 3.9873C7.53962 3.9873 7.15294 4.1046 6.82404 4.32437C6.49514 4.54413 6.2388 4.85649 6.08742 5.22194C5.93605 5.58739 5.89644 5.98952 5.97361 6.37749C6.05078 6.76545 6.24126 7.12181 6.52097 7.40152C6.80067 7.68122 7.15704 7.8717 7.545 7.94888C7.93296 8.02605 8.3351 7.98644 8.70055 7.83506C9.066 7.68369 9.37836 7.42734 9.59812 7.09845C9.81788 6.76955 9.93518 6.38287 9.93518 5.9873C9.93458 5.45706 9.72367 4.9487 9.34873 4.57376C8.97379 4.19882 8.46543 3.98791 7.93518 3.9873ZM7.93518 6.9873C7.7374 6.9873 7.54406 6.92866 7.37961 6.81877C7.21516 6.70889 7.08699 6.55271 7.0113 6.36999C6.93561 6.18726 6.91581 5.9862 6.9544 5.79221C6.99298 5.59823 7.08822 5.42005 7.22807 5.2802C7.36793 5.14035 7.54611 5.0451 7.74009 5.00652C7.93407 4.96793 8.13514 4.98774 8.31786 5.06343C8.50059 5.13911 8.65677 5.26729 8.76665 5.43173C8.87653 5.59618 8.93518 5.78952 8.93518 5.9873C8.93488 6.25243 8.82942 6.5066 8.64195 6.69407C8.45448 6.88154 8.2003 6.987 7.93518 6.9873Z" fill="white"/>
<path d="M11.7784 2.14122C10.8281 1.19123 9.5597 0.626898 8.21786 0.55714C6.87602 0.487381 5.5559 0.917141 4.51228 1.76347C3.46867 2.60981 2.77555 3.81272 2.56669 5.14004C2.35783 6.46736 2.64804 7.825 3.38131 8.95093L7.15965 14.7513C7.24373 14.8804 7.3587 14.9865 7.49412 15.0599C7.62955 15.1333 7.78116 15.1717 7.9352 15.1717C8.08924 15.1717 8.24085 15.1333 8.37627 15.0599C8.5117 14.9865 8.62666 14.8804 8.71075 14.7513L12.4892 8.95093C13.1696 7.90647 13.4703 6.65987 13.3409 5.42007C13.2115 4.18028 12.6598 3.02265 11.7784 2.14122ZM11.6513 8.40509L7.93521 14.1098L4.21906 8.40509C3.08156 6.65887 3.32553 4.322 4.79915 2.84831C5.21098 2.43647 5.6999 2.10978 6.23798 1.88689C6.77607 1.664 7.35279 1.54928 7.93521 1.54928C8.51764 1.54928 9.09436 1.664 9.63244 1.88689C10.1705 2.10978 10.6594 2.43647 11.0713 2.84831C12.5449 4.322 12.7888 6.65887 11.6513 8.40509Z" fill="white"/>
</svg>
