<svg width="330" height="172" viewBox="0 0 330 172" fill="none" xmlns="http://www.w3.org/2000/svg">
<g filter="url(#filter0_d_10309_45808)">
<g clip-path="url(#clip0_10309_45808)">
<rect x="10" y="5" width="310" height="152" fill="white"/>
<path fill-rule="evenodd" clip-rule="evenodd" d="M8.88087 -7L31.083 14.584V24.4273H31.084V34.2716L8.88184 55.8556V34.9442L21.2616 24.4282L8.88087 13.9114V-7Z" fill="#FDBE4D"/>
<path d="M36.2383 23.1055C40.0839 23.1055 43.7721 21.5778 46.4913 18.8585C49.2106 16.1392 50.7383 12.4511 50.7383 8.60547C50.7383 4.75983 49.2106 1.0717 46.4913 -1.64758C43.7721 -4.36686 40.0839 -5.89453 36.2383 -5.89453L36.2383 8.60547L36.2383 23.1055Z" fill="#F6903C"/>
<path d="M279.116 -24.3032L297.814 -42.9999L297.814 19.2303L279.115 37.927L279.116 -24.3032Z" fill="#F6903C"/>
<path d="M320.594 14.8003L301.896 -3.89635L301.896 58.3338L320.594 77.0305L320.594 14.8003Z" fill="#2D9EB1"/>
<path d="M311.244 75.4956L292.546 56.799L292.546 119.029L311.244 137.726L311.244 75.4956Z" fill="#F6903C"/>
<path d="M34.9508 96.9236L21.8583 83.8321V127.406L34.9508 140.498L34.9508 96.9236Z" fill="#F6903C"/>
<path d="M11.9789 93.6636L19.4287 86.2138V105.743L11.9789 113.193V93.6636Z" fill="#FDBE4D"/>
<path d="M8.76499 74.6148L16.2148 67.165V86.6944L8.76499 94.1442V74.6148Z" fill="#FDBE4D"/>
<path fill-rule="evenodd" clip-rule="evenodd" d="M52.1543 42.5215L29.9521 64.1055V73.9497H39.7735L52.1543 63.4329V42.5215ZM52.1543 105.379L29.9521 83.795V73.9508H39.7735L52.1543 84.4676V105.379Z" fill="#FDBE4D"/>
<path d="M36.7383 50.6936V32.1055L24.7383 44.5173V63.1055L36.7383 50.6936Z" fill="#2D9EB1"/>
<circle cx="22.7383" cy="73.1055" r="4" fill="#FDBE4D"/>
<path d="M22.7383 57.9245V47.1055L8.73828 61.2864V72.1055L22.7383 57.9245Z" fill="#FDBE4D"/>
<path d="M297.794 42.301V27.1543L277.794 47.0076V62.1543L297.794 42.301Z" fill="#FDBE4D"/>
<path fill-rule="evenodd" clip-rule="evenodd" d="M292.358 50.8068L289.751 53.4328L286.907 50.5681L289.514 47.9421L286.078 44.4807L283.471 47.1067L280.627 44.242L283.234 41.616L279.798 38.1546L279.794 38.1586L279.79 38.1543L276.354 41.616L278.96 44.2417L276.117 47.1064L273.51 44.4804L270.074 47.9421L272.681 50.5678L269.837 53.4325L267.23 50.8068L263.794 54.2682L266.401 56.8939L267.23 57.7297L270.666 54.2682L273.51 51.4036L276.946 47.9421L279.79 45.0775L279.794 45.0735L279.798 45.0775L282.642 47.9421L286.078 51.4036L288.922 54.2682L292.358 57.7297L293.187 56.8942L295.794 54.2682L292.358 50.8068ZM280.375 46.6847C280.048 46.355 279.518 46.355 279.191 46.6847L268.408 57.5467C268.081 57.876 268.081 58.4105 268.408 58.7402L279.191 69.6021C279.518 69.9315 280.048 69.9315 280.375 69.6021L291.158 58.7402C291.485 58.4105 291.485 57.876 291.158 57.5467L280.375 46.6847ZM270.664 56.6381L272.047 58.0307L270.664 59.4233H274.686L276.362 58.7481L277.702 60.0985L279.043 61.4489L278.372 63.1369V67.1881L279.755 65.7955L281.137 67.1881V63.1369L280.467 61.4489L281.473 60.4351L283.19 58.8325L284.866 59.5077H288.887L287.505 58.1151L288.887 56.7225H284.866L283.19 57.3977L281.85 56.0472L280.509 54.6968L281.179 53.0088V48.9576L279.797 50.3502L278.414 48.9576V53.0088L279.085 54.6968L278.078 55.7106L276.362 57.3133L274.686 56.6381H270.664ZM279.755 60.8159L278.372 59.4233L276.991 58.0323L279.797 55.3298L281.179 56.7225L282.56 58.1134L279.755 60.8159ZM269.837 62.8761L267.23 65.5021L263.794 62.0407L266.401 59.4147L267.23 58.5793L270.666 62.0407L273.51 64.9054L276.946 68.3668L279.79 71.2315L279.794 71.2354L279.798 71.2315L282.642 68.3668L286.078 64.9054L288.922 62.0407L292.358 58.5793L293.187 59.4147L295.794 62.0407L292.358 65.5021L289.751 62.8761L286.907 65.7408L289.514 68.3668L286.078 71.8282L283.471 69.2022L280.627 72.0669L283.234 74.6929L279.798 78.1543L279.794 78.1503L279.79 78.1543L276.354 74.6929L278.96 72.0669L276.117 69.2022L273.51 71.8282L270.074 68.3668L272.681 65.7408L269.837 62.8761Z" fill="black"/>
<path fill-rule="evenodd" clip-rule="evenodd" d="M292.358 96.1231L289.751 98.8148L286.907 95.8785L289.514 93.1868L286.078 89.6389L283.471 92.3305L280.627 89.3942L283.234 86.7026L279.798 83.1546L279.794 83.1587L279.79 83.1543L276.354 86.7026L278.96 89.3939L276.117 92.3302L273.51 89.6385L270.074 93.1868L272.681 95.8781L269.837 98.8144L267.23 96.1231L263.794 99.6711L266.401 102.362L267.23 103.219L270.666 99.6711L273.51 96.7348L276.946 93.1868L279.79 90.2505L279.794 90.2465L279.798 90.2505L282.642 93.1868L286.078 96.7348L288.922 99.6711L292.358 103.219L293.187 102.363L295.794 99.6711L292.358 96.1231ZM280.375 91.898C280.048 91.56 279.518 91.56 279.191 91.898L268.408 103.031C268.081 103.369 268.081 103.917 268.408 104.255L279.191 115.388C279.518 115.726 280.048 115.726 280.375 115.388L291.158 104.255C291.485 103.917 291.485 103.369 291.158 103.031L280.375 91.898ZM270.664 102.1L272.047 103.528L270.664 104.955H274.686L276.362 104.263L277.702 105.647L279.043 107.031L278.372 108.761V112.914L279.755 111.487L281.137 112.914V108.761L280.467 107.031L281.473 105.992L283.19 104.349L284.866 105.042H288.887L287.505 103.614L288.887 102.187H284.866L283.19 102.879L281.85 101.495L280.509 100.11L281.179 98.3802V94.2277L279.797 95.6551L278.414 94.2277V98.3802L279.085 100.11L278.078 101.15L276.362 102.792L274.686 102.1H270.664ZM279.755 106.382L278.372 104.955L276.991 103.529L279.797 100.759L281.179 102.187L282.56 103.612L279.755 106.382ZM269.837 108.494L267.23 111.186L263.794 107.638L266.401 104.946L267.23 104.09L270.666 107.638L273.51 110.574L276.946 114.122L279.79 117.058L279.794 117.062L279.798 117.058L282.642 114.122L286.078 110.574L288.922 107.638L292.358 104.09L293.187 104.946L295.794 107.638L292.358 111.186L289.751 108.494L286.907 111.43L289.514 114.122L286.078 117.67L283.471 114.978L280.627 117.915L283.234 120.606L279.798 124.154L279.794 124.15L279.79 124.154L276.354 120.606L278.96 117.915L276.117 114.978L273.51 117.67L270.074 114.122L272.681 111.43L269.837 108.494Z" fill="black"/>
<path fill-rule="evenodd" clip-rule="evenodd" d="M292.358 141.807L289.751 144.433L286.907 141.568L289.514 138.942L286.078 135.481L283.471 138.107L280.627 135.242L283.234 132.616L279.798 129.155L279.794 129.159L279.79 129.154L276.354 132.616L278.96 135.242L276.117 138.106L273.51 135.48L270.074 138.942L272.681 141.568L269.837 144.432L267.23 141.807L263.794 145.268L266.401 147.894L267.23 148.73L270.666 145.268L273.51 142.404L276.946 138.942L279.79 136.077L279.794 136.074L279.798 136.077L282.642 138.942L286.078 142.404L288.922 145.268L292.358 148.73L293.187 147.894L295.794 145.268L292.358 141.807ZM280.375 137.685C280.048 137.355 279.518 137.355 279.191 137.685L268.408 148.547C268.081 148.876 268.081 149.41 268.408 149.74L279.191 160.602C279.518 160.931 280.048 160.931 280.375 160.602L291.158 149.74C291.485 149.41 291.485 148.876 291.158 148.547L280.375 137.685ZM270.664 147.638L272.047 149.031L270.664 150.423H274.686L276.362 149.748L277.702 151.098L279.043 152.449L278.372 154.137V158.188L279.755 156.796L281.137 158.188V154.137L280.467 152.449L281.473 151.435L283.19 149.832L284.866 150.508H288.887L287.505 149.115L288.887 147.722H284.866L283.19 148.398L281.85 147.047L280.509 145.697L281.179 144.009V139.958L279.797 141.35L278.414 139.958V144.009L279.085 145.697L278.078 146.711L276.362 148.313L274.686 147.638H270.664ZM279.755 151.816L278.372 150.423L276.991 149.032L279.797 146.33L281.179 147.722L282.56 149.113L279.755 151.816ZM269.837 153.876L267.23 156.502L263.794 153.041L266.401 150.415L267.23 149.579L270.666 153.041L273.51 155.905L276.946 159.367L279.79 162.231L279.794 162.235L279.798 162.231L282.642 159.367L286.078 155.905L288.922 153.041L292.358 149.579L293.187 150.415L295.794 153.041L292.358 156.502L289.751 153.876L286.907 156.741L289.514 159.367L286.078 162.828L283.471 160.202L280.627 163.067L283.234 165.693L279.798 169.154L279.794 169.15L279.79 169.154L276.354 165.693L278.96 163.067L276.117 160.202L273.51 162.828L270.074 159.367L272.681 156.741L269.837 153.876Z" fill="black"/>
<path fill-rule="evenodd" clip-rule="evenodd" d="M292.358 5.80682L289.751 8.4328L286.907 5.56812L289.514 2.94214L286.078 -0.519277L283.471 2.10671L280.627 -0.757973L283.234 -3.38396L279.798 -6.84537L279.794 -6.84142L279.79 -6.8457L276.354 -3.38396L278.96 -0.758302L276.117 2.10638L273.51 -0.519607L270.074 2.94214L272.681 5.56779L269.837 8.43247L267.23 5.80682L263.794 9.26824L266.401 11.8939L267.23 12.7297L270.666 9.26824L273.51 6.40356L276.946 2.94214L279.79 0.0774627L279.794 0.0735064L279.798 0.0774627L282.642 2.94214L286.078 6.40356L288.922 9.26824L292.358 12.7297L293.187 11.8942L295.794 9.26824L292.358 5.80682ZM280.375 1.6847C280.048 1.35501 279.518 1.35501 279.191 1.6847L268.408 12.5467C268.081 12.876 268.081 13.4105 268.408 13.7402L279.191 24.6021C279.518 24.9315 280.048 24.9315 280.375 24.6021L291.158 13.7402C291.485 13.4105 291.485 12.876 291.158 12.5467L280.375 1.6847ZM270.664 11.6381L272.047 13.0307L270.664 14.4233H274.686L276.362 13.7481L277.702 15.0985L279.043 16.4489L278.372 18.1369V22.1881L279.755 20.7955L281.137 22.1881V18.1369L280.467 16.4489L281.473 15.4351L283.19 13.8325L284.866 14.5077H288.887L287.505 13.1151L288.887 11.7225H284.866L283.19 12.3977L281.85 11.0472L280.509 9.69683L281.179 8.00882V3.95759L279.797 5.3502L278.414 3.95759V8.00882L279.085 9.69683L278.078 10.7106L276.362 12.3133L274.686 11.6381H270.664ZM279.755 15.8159L278.372 14.4233L276.991 13.0323L279.797 10.3298L281.179 11.7225L282.56 13.1134L279.755 15.8159ZM269.837 17.8761L267.23 20.5021L263.794 17.0407L266.401 14.4147L267.23 13.5793L270.666 17.0407L273.51 19.9054L276.946 23.3668L279.79 26.2315L279.794 26.2354L279.798 26.2315L282.642 23.3668L286.078 19.9054L288.922 17.0407L292.358 13.5793L293.187 14.4147L295.794 17.0407L292.358 20.5021L289.751 17.8761L286.907 20.7408L289.514 23.3668L286.078 26.8282L283.471 24.2022L280.627 27.0669L283.234 29.6929L279.798 33.1543L279.794 33.1503L279.79 33.1543L276.354 29.6929L278.96 27.0669L276.117 24.2022L273.51 26.8282L270.074 23.3668L272.681 20.7408L269.837 17.8761Z" fill="black"/>
<g clip-path="url(#clip1_10309_45808)">
<path d="M114.913 79.5422H110.541V71.92H104.063V79.5422H99.665V61.2891H104.063V68.5351H110.541V61.2891H114.913V79.5422Z" fill="black"/>
<path d="M133.157 70.7925C133.157 72.5726 132.827 74.148 132.167 75.5187C131.507 76.8893 130.567 77.9466 129.348 78.6904C128.137 79.4259 126.754 79.7936 125.201 79.7936C123.647 79.7936 122.269 79.4384 121.066 78.728C119.863 78.0093 118.923 76.9855 118.247 75.6566C117.579 74.3277 117.228 72.8024 117.194 71.0808V70.0528C117.194 68.2642 117.52 66.6888 118.172 65.3265C118.832 63.9559 119.771 62.8986 120.991 62.1548C122.219 61.411 123.614 61.0391 125.176 61.0391C126.721 61.0391 128.099 61.4068 129.31 62.1423C130.521 62.8777 131.461 63.9266 132.129 65.2889C132.806 66.6429 133.148 68.1974 133.157 69.9525V70.7925ZM128.684 70.0277C128.684 68.2141 128.379 66.8393 127.769 65.9032C127.168 64.9588 126.303 64.4866 125.176 64.4866C122.97 64.4866 121.805 66.1414 121.68 69.451L121.667 70.7925C121.667 72.581 121.964 73.9558 122.557 74.917C123.15 75.878 124.031 76.3587 125.201 76.3587C126.312 76.3587 127.168 75.8864 127.769 74.942C128.371 73.9976 128.675 72.6395 128.684 70.8676V70.0277Z" fill="black"/>
<path d="M142.202 73.0984H139.822V79.5422H135.424V61.2891H142.603C144.767 61.2891 146.458 61.7696 147.678 62.7308C148.897 63.6919 149.507 65.05 149.507 66.8051C149.507 68.0755 149.248 69.1285 148.73 69.9643C148.22 70.8001 147.419 71.477 146.324 71.9952L150.133 79.3541V79.5422H145.422L142.202 73.0984ZM139.822 69.7011H142.603C143.438 69.7011 144.065 69.4837 144.483 69.0491C144.909 68.6062 145.122 67.9919 145.122 67.2063C145.122 66.4207 144.909 65.8064 144.483 65.3634C144.057 64.9121 143.43 64.6864 142.603 64.6864H139.822V69.7011Z" fill="black"/>
<path d="M167.612 70.7925C167.612 72.5726 167.282 74.148 166.622 75.5187C165.962 76.8893 165.023 77.9466 163.803 78.6904C162.592 79.4259 161.209 79.7936 159.656 79.7936C158.102 79.7936 156.724 79.4384 155.521 78.728C154.318 78.0093 153.378 76.9855 152.702 75.6566C152.034 74.3277 151.683 72.8024 151.649 71.0808V70.0528C151.649 68.2642 151.975 66.6888 152.627 65.3265C153.287 63.9559 154.226 62.8986 155.446 62.1548C156.674 61.411 158.069 61.0391 159.631 61.0391C161.176 61.0391 162.554 61.4068 163.765 62.1423C164.977 62.8777 165.916 63.9266 166.585 65.2889C167.261 66.6429 167.604 68.1974 167.612 69.9525V70.7925ZM163.139 70.0277C163.139 68.2141 162.834 66.8393 162.224 65.9032C161.623 64.9588 160.758 64.4866 159.631 64.4866C157.426 64.4866 156.26 66.1414 156.135 69.451L156.122 70.7925C156.122 72.581 156.419 73.9558 157.012 74.917C157.605 75.878 158.486 76.3587 159.656 76.3587C160.767 76.3587 161.623 75.8864 162.224 74.942C162.826 73.9976 163.131 72.6395 163.139 70.8676V70.0277Z" fill="black"/>
<path d="M185.115 79.5422H180.743L174.277 68.1841V79.5422H169.88V61.2891H174.277L180.73 72.6471V61.2891H185.115V79.5422Z" fill="black"/>
<path d="M187.897 79.5422V61.2891H193.774C195.386 61.2891 196.835 61.6568 198.121 62.3923C199.407 63.1194 200.41 64.1516 201.128 65.4888C201.855 66.8176 202.222 68.3095 202.231 69.9643V70.8042C202.231 72.4758 201.876 73.976 201.166 75.3048C200.465 76.6254 199.47 77.6617 198.184 78.4139C196.906 79.1577 195.478 79.5338 193.899 79.5422H187.897ZM192.295 64.6864V76.1573H193.824C195.085 76.1573 196.054 75.7102 196.73 74.8159C197.407 73.9133 197.745 72.576 197.745 70.8042V70.0144C197.745 68.251 197.407 66.9221 196.73 66.0278C196.054 65.1336 195.068 64.6864 193.774 64.6864H192.295Z" fill="black"/>
<path d="M209.172 79.5422H204.787V61.2891H209.172V79.5422Z" fill="black"/>
</g>
</g>
</g>
<defs>
<filter id="filter0_d_10309_45808" x="0" y="0" width="330" height="172" filterUnits="userSpaceOnUse" color-interpolation-filters="sRGB">
<feFlood flood-opacity="0" result="BackgroundImageFix"/>
<feColorMatrix in="SourceAlpha" type="matrix" values="0 0 0 0 0 0 0 0 0 0 0 0 0 0 0 0 0 0 127 0" result="hardAlpha"/>
<feOffset dy="5"/>
<feGaussianBlur stdDeviation="5"/>
<feComposite in2="hardAlpha" operator="out"/>
<feColorMatrix type="matrix" values="0 0 0 0 0.141176 0 0 0 0 0.141176 0 0 0 0 0.141176 0 0 0 0.15 0"/>
<feBlend mode="normal" in2="BackgroundImageFix" result="effect1_dropShadow_10309_45808"/>
<feBlend mode="normal" in="SourceGraphic" in2="effect1_dropShadow_10309_45808" result="shape"/>
</filter>
<clipPath id="clip0_10309_45808">
<rect x="10" y="5" width="310" height="152" fill="white"/>
</clipPath>
<clipPath id="clip1_10309_45808">
<rect width="110.481" height="19.256" fill="white" transform="translate(99 61)"/>
</clipPath>
</defs>
</svg>
