<svg width="15" height="15" viewBox="0 0 15 15" fill="none" xmlns="http://www.w3.org/2000/svg">
<path d="M7.5 0.9375C3.87598 0.9375 0.9375 3.87598 0.9375 7.5C0.9375 11.124 3.87598 14.0625 7.5 14.0625C11.124 14.0625 14.0625 11.124 14.0625 7.5C14.0625 3.87598 11.124 0.9375 7.5 0.9375ZM7.5 12.9492C4.49121 12.9492 2.05078 10.5088 2.05078 7.5C2.05078 4.49121 4.49121 2.05078 7.5 2.05078C10.5088 2.05078 12.9492 4.49121 12.9492 7.5C12.9492 10.5088 10.5088 12.9492 7.5 12.9492Z" fill="white"/>
<path d="M10.0591 9.35449L7.97021 7.84424V4.21875C7.97021 4.1543 7.91748 4.10156 7.85303 4.10156H7.14844C7.08398 4.10156 7.03125 4.1543 7.03125 4.21875V8.25293C7.03125 8.29102 7.04883 8.32617 7.07959 8.34814L9.50244 10.1147C9.55518 10.1528 9.62842 10.1411 9.6665 10.0898L10.0854 9.51855C10.1235 9.46435 10.1118 9.39111 10.0591 9.35449Z" fill="white"/>
</svg>
